<svg version="1.1" id="Layer_1" xmlns="http://www.w3.org/2000/svg" xmlns:xlink="http://www.w3.org/1999/xlink" x="0px" y="0px"
	 width="100%" viewBox="0 0 1254 1254" enable-background="new 0 0 1254 1254" xml:space="preserve">
<path fill="#010000" opacity="1.000000" stroke="none" 
	d="
M801.000000,1255.000000 
	C534.000061,1255.000000 267.500092,1255.000000 1.000107,1255.000000 
	C1.000072,837.000122 1.000072,419.000244 1.000036,1.000276 
	C418.999786,1.000184 836.999573,1.000184 1254.999512,1.000092 
	C1254.999756,418.999725 1254.999756,836.999451 1254.999878,1254.999512 
	C1103.833374,1255.000000 952.666687,1255.000000 801.000000,1255.000000 
M756.224121,626.600830 
	C756.590027,543.731873 756.955933,460.862885 757.324036,377.498016 
	C843.616028,429.450928 929.083862,480.907684 1014.551697,532.364441 
	C1014.987793,531.968140 1015.423950,531.571838 1015.860046,531.175598 
	C1015.860046,526.552734 1015.816956,521.929382 1015.866882,517.307068 
	C1016.250549,481.816895 1016.597778,446.326080 1017.120117,410.837891 
	C1017.182373,406.606110 1016.180969,403.879028 1012.217102,401.646271 
	C1002.937439,396.419098 993.998352,390.588959 984.901917,385.034729 
	C928.176880,350.398590 871.629700,315.466553 814.663940,281.230774 
	C762.569702,249.922775 710.022827,219.367996 657.667419,188.494751 
	C655.071228,186.963852 652.399170,185.561584 649.399780,183.898315 
	C649.399780,479.100616 649.399780,773.316956 649.399780,1068.245117 
	C653.189148,1066.093994 656.504028,1064.317505 659.717041,1062.372681 
	C710.428528,1031.676514 761.298828,1001.238220 811.785645,970.176758 
	C878.039246,929.414856 943.974426,888.135437 1010.111572,847.183655 
	C1013.197571,845.272766 1014.301147,843.217407 1014.284363,839.628174 
	C1014.101562,800.634827 1014.091492,761.640625 1014.006897,722.646729 
	C1014.004700,721.621338 1013.691956,720.596619 1013.426331,718.975159 
	C927.394836,774.485657 841.915283,829.640015 755.575012,885.349731 
	C755.575012,881.215088 755.588196,878.403687 755.572815,875.592468 
	C755.484375,859.443054 755.389221,843.293640 755.524109,826.325439 
	C755.743469,766.842041 755.973755,707.358704 756.167419,647.875183 
	C756.189636,641.054260 756.006836,634.232605 756.224121,626.600830 
M243.172424,841.626404 
	C245.339706,843.348511 247.365540,845.295898 249.695602,846.758728 
	C282.701843,867.479797 315.746643,888.139404 348.793274,908.796021 
	C350.833435,910.071228 352.966370,911.197998 355.928070,912.892761 
	C355.928070,906.518311 355.913544,901.237732 355.930298,895.957275 
	C356.120636,835.963501 356.377625,775.969666 356.399261,715.975830 
	C356.401123,710.835266 357.731415,708.598022 362.979767,707.186829 
	C404.625031,695.989319 446.167419,684.409363 487.746460,672.965271 
	C491.546753,671.919373 495.382599,671.002563 499.818024,669.868164 
	C499.818024,672.082214 499.818909,673.710449 499.817902,675.338623 
	C499.805542,694.836853 499.784058,714.335083 499.781891,733.833313 
	C499.772278,820.826538 499.774872,907.819702 499.734650,994.812927 
	C499.733215,997.923462 499.983521,1000.350403 503.147003,1002.339600 
	C536.270264,1023.167236 569.274780,1044.183716 602.323242,1065.130493 
	C603.907898,1066.134888 605.595459,1066.977051 607.374451,1067.972656 
	C607.374451,773.082520 607.374451,478.917725 607.374451,184.094223 
	C602.660339,187.034744 598.581970,189.576492 594.505737,192.121750 
	C564.425232,210.904526 534.369934,229.728058 504.227905,248.411636 
	C501.072723,250.367371 499.467010,252.408829 499.687531,256.329651 
	C500.042633,262.642242 499.773376,268.989716 499.774139,275.322449 
	C499.785553,367.148163 499.746063,458.974030 499.936493,550.799377 
	C499.948181,556.443115 498.447479,558.751648 492.764648,560.150024 
	C454.123016,569.659180 415.588165,579.602173 377.016876,589.397522 
	C370.464142,591.061646 363.902191,592.689575 356.695526,594.496948 
	C356.695526,508.934540 356.695526,424.099976 356.695526,338.511658 
	C353.162476,340.622009 350.305695,342.261902 347.514069,344.006073 
	C314.888306,364.390228 282.348175,384.913544 249.571304,405.051544 
	C244.706680,408.040344 242.899063,411.084290 242.915924,416.806549 
	C243.119217,485.800598 243.024017,554.795471 243.034088,623.790161 
	C243.044647,696.117737 243.084976,768.445251 243.172424,841.626404 
M904.397583,634.715332 
	C904.679443,635.312134 904.827148,636.040039 905.263184,636.486145 
	C912.475220,643.864258 919.607300,651.328430 927.062195,658.454285 
	C928.543884,659.870544 931.280579,660.515503 933.460938,660.567139 
	C944.109741,660.818970 954.766174,660.795898 965.419800,660.777344 
	C972.938782,660.764221 977.344727,656.578003 977.409851,649.137390 
	C977.513367,637.318970 977.477295,625.497314 977.324219,613.679321 
	C977.237976,607.014709 972.904541,602.821594 966.272949,602.776306 
	C955.619385,602.703552 944.953979,602.484802 934.317871,602.920715 
	C931.348633,603.042358 927.893250,604.609863 925.651672,606.619385 
	C919.590698,612.052795 914.182190,618.206482 908.273438,623.820312 
	C905.254150,626.688843 903.573425,629.752747 904.397583,634.715332 
M845.616150,609.862366 
	C841.619324,603.701782 835.905762,602.252014 828.819946,602.689087 
	C820.029236,603.231384 811.176697,602.736389 802.350952,602.757019 
	C794.250610,602.775940 790.207886,606.987000 790.253174,615.164856 
	C790.314087,626.154419 790.373474,637.144043 790.372803,648.133667 
	C790.372253,656.693970 794.323120,660.749512 802.767029,660.732544 
	C812.758057,660.712524 822.751770,660.562500 832.738892,660.754150 
	C837.100403,660.837891 840.371948,659.335876 843.304016,656.215210 
	C849.117188,650.028076 855.124817,644.023743 861.048950,637.940796 
	C864.873962,634.013306 864.995483,629.599365 861.202942,625.661011 
	C856.237671,620.505005 851.158386,615.458740 845.616150,609.862366 
M884.500244,536.673645 
	C879.004822,536.687683 873.509216,536.730164 868.013916,536.709106 
	C859.602356,536.676880 855.252502,540.741150 855.187378,549.034241 
	C855.103638,559.691711 854.915955,570.361755 855.362854,581.001587 
	C855.489014,584.005127 857.026062,587.503113 859.044739,589.768860 
	C864.907104,596.349060 871.318481,602.442749 877.560425,608.681335 
	C881.861755,612.980469 885.676941,612.984741 890.038879,608.660339 
	C896.541199,602.214050 903.127930,595.839722 909.333130,589.115906 
	C910.953003,587.360657 912.033264,584.444702 912.096436,582.028748 
	C912.392456,570.712219 912.322144,559.383423 912.230469,548.060303 
	C912.175415,541.265808 907.733521,536.830322 900.985962,536.687866 
	C895.826233,536.578857 890.662170,536.680481 884.500244,536.673645 
M912.249329,696.500000 
	C912.246399,691.344421 912.489929,686.171570 912.128662,681.041199 
	C911.966248,678.734375 911.178711,675.971375 909.671143,674.346680 
	C903.342285,667.526672 896.668030,661.024414 890.051086,654.475708 
	C886.437805,650.899719 881.371521,650.842773 877.701538,654.442261 
	C871.054993,660.961304 864.433716,667.514526 858.055969,674.292664 
	C856.596130,675.844238 855.439209,678.348633 855.386719,680.445679 
	C855.099182,691.914673 855.054077,703.395569 855.225525,714.867920 
	C855.316467,720.952148 859.736389,725.216797 865.747681,725.277466 
	C877.720825,725.398315 889.697571,725.422302 901.669739,725.257996 
	C908.154541,725.169067 912.017273,721.045776 912.165649,714.463196 
	C912.292969,708.810852 912.236694,703.154419 912.249329,696.500000 
z"/>
<path fill="#A401BD" opacity="1.000000" stroke="none" 
	d="
M243.142365,841.199585 
	C243.084976,768.445251 243.044647,696.117737 243.034088,623.790161 
	C243.024017,554.795471 243.119217,485.800598 242.915924,416.806549 
	C242.899063,411.084290 244.706680,408.040344 249.571304,405.051544 
	C282.348175,384.913544 314.888306,364.390228 347.514069,344.006073 
	C350.305695,342.261902 353.162476,340.622009 356.695526,338.511658 
	C356.695526,424.099976 356.695526,508.934540 356.695526,594.496948 
	C363.902191,592.689575 370.464142,591.061646 377.016876,589.397522 
	C415.588165,579.602173 454.123016,569.659180 492.764648,560.150024 
	C498.447479,558.751648 499.948181,556.443115 499.936493,550.799377 
	C499.746063,458.974030 499.785553,367.148163 499.774139,275.322449 
	C499.773376,268.989716 500.042633,262.642242 499.687531,256.329651 
	C499.467010,252.408829 501.072723,250.367371 504.227905,248.411636 
	C534.369934,229.728058 564.425232,210.904526 594.505737,192.121750 
	C598.581970,189.576492 602.660339,187.034744 607.374451,184.094223 
	C607.374451,478.917725 607.374451,773.082520 607.374451,1067.972656 
	C605.595459,1066.977051 603.907898,1066.134888 602.323242,1065.130493 
	C569.274780,1044.183716 536.270264,1023.167236 503.147003,1002.339600 
	C499.983521,1000.350403 499.733215,997.923462 499.734650,994.812927 
	C499.774872,907.819702 499.772278,820.826538 499.781891,733.833313 
	C499.784058,714.335083 499.805542,694.836853 499.817902,675.338623 
	C499.818909,673.710449 499.818024,672.082214 499.818024,669.868164 
	C495.382599,671.002563 491.546753,671.919373 487.746460,672.965271 
	C446.167419,684.409363 404.625031,695.989319 362.979767,707.186829 
	C357.731415,708.598022 356.401123,710.835266 356.399261,715.975830 
	C356.377625,775.969666 356.120636,835.963501 355.930298,895.957275 
	C355.913544,901.237732 355.928070,906.518311 355.928070,912.892761 
	C352.966370,911.197998 350.833435,910.071228 348.793274,908.796021 
	C315.746643,888.139404 282.701843,867.479797 249.695602,846.758728 
	C247.365540,845.295898 245.339706,843.348511 243.142365,841.199585 
z"/>
<path fill="#A401BD" opacity="1.000000" stroke="none" 
	d="
M755.296265,827.144226 
	C755.389221,843.293640 755.484375,859.443054 755.572815,875.592468 
	C755.588196,878.403687 755.575012,881.215088 755.575012,885.349731 
	C841.915283,829.640015 927.394836,774.485657 1013.426331,718.975159 
	C1013.691956,720.596619 1014.004700,721.621338 1014.006897,722.646729 
	C1014.091492,761.640625 1014.101562,800.634827 1014.284363,839.628174 
	C1014.301147,843.217407 1013.197571,845.272766 1010.111572,847.183655 
	C943.974426,888.135437 878.039246,929.414856 811.785645,970.176758 
	C761.298828,1001.238220 710.428528,1031.676514 659.717041,1062.372681 
	C656.504028,1064.317505 653.189148,1066.093994 649.399780,1068.245117 
	C649.399780,773.316956 649.399780,479.100616 649.399780,183.898315 
	C652.399170,185.561584 655.071228,186.963852 657.667419,188.494751 
	C710.022827,219.367996 762.569702,249.922775 814.663940,281.230774 
	C871.629700,315.466553 928.176880,350.398590 984.901917,385.034729 
	C993.998352,390.588959 1002.937439,396.419098 1012.217102,401.646271 
	C1016.180969,403.879028 1017.182373,406.606110 1017.120117,410.837891 
	C1016.597778,446.326080 1016.250549,481.816895 1015.866882,517.307068 
	C1015.816956,521.929382 1015.860046,526.552734 1015.860046,531.175598 
	C1015.423950,531.571838 1014.987793,531.968140 1014.551697,532.364441 
	C929.083862,480.907684 843.616028,429.450928 757.324036,377.498016 
	C756.955933,460.862885 756.590027,543.731873 755.759583,627.385864 
	C754.863770,630.407715 754.058472,632.643982 754.055786,634.881226 
	C753.982239,696.563477 753.975586,758.245728 754.040283,819.927979 
	C754.042786,822.333862 754.859131,824.738831 755.296265,827.144226 
z"/>
<path fill="#A101B9" opacity="1.000000" stroke="none" 
	d="
M904.353882,634.324585 
	C903.573425,629.752747 905.254150,626.688843 908.273438,623.820312 
	C914.182190,618.206482 919.590698,612.052795 925.651672,606.619385 
	C927.893250,604.609863 931.348633,603.042358 934.317871,602.920715 
	C944.953979,602.484802 955.619385,602.703552 966.272949,602.776306 
	C972.904541,602.821594 977.237976,607.014709 977.324219,613.679321 
	C977.477295,625.497314 977.513367,637.318970 977.409851,649.137390 
	C977.344727,656.578003 972.938782,660.764221 965.419800,660.777344 
	C954.766174,660.795898 944.109741,660.818970 933.460938,660.567139 
	C931.280579,660.515503 928.543884,659.870544 927.062195,658.454285 
	C919.607300,651.328430 912.475220,643.864258 905.263184,636.486145 
	C904.827148,636.040039 904.679443,635.312134 904.353882,634.324585 
z"/>
<path fill="#9F01B7" opacity="1.000000" stroke="none" 
	d="
M845.872192,610.113770 
	C851.158386,615.458740 856.237671,620.505005 861.202942,625.661011 
	C864.995483,629.599365 864.873962,634.013306 861.048950,637.940796 
	C855.124817,644.023743 849.117188,650.028076 843.304016,656.215210 
	C840.371948,659.335876 837.100403,660.837891 832.738892,660.754150 
	C822.751770,660.562500 812.758057,660.712524 802.767029,660.732544 
	C794.323120,660.749512 790.372253,656.693970 790.372803,648.133667 
	C790.373474,637.144043 790.314087,626.154419 790.253174,615.164856 
	C790.207886,606.987000 794.250610,602.775940 802.350952,602.757019 
	C811.176697,602.736389 820.029236,603.231384 828.819946,602.689087 
	C835.905762,602.252014 841.619324,603.701782 845.872192,610.113770 
z"/>
<path fill="#A001B9" opacity="1.000000" stroke="none" 
	d="
M885.000122,536.681030 
	C890.662170,536.680481 895.826233,536.578857 900.985962,536.687866 
	C907.733521,536.830322 912.175415,541.265808 912.230469,548.060303 
	C912.322144,559.383423 912.392456,570.712219 912.096436,582.028748 
	C912.033264,584.444702 910.953003,587.360657 909.333130,589.115906 
	C903.127930,595.839722 896.541199,602.214050 890.038879,608.660339 
	C885.676941,612.984741 881.861755,612.980469 877.560425,608.681335 
	C871.318481,602.442749 864.907104,596.349060 859.044739,589.768860 
	C857.026062,587.503113 855.489014,584.005127 855.362854,581.001587 
	C854.915955,570.361755 855.103638,559.691711 855.187378,549.034241 
	C855.252502,540.741150 859.602356,536.676880 868.013916,536.709106 
	C873.509216,536.730164 879.004822,536.687683 885.000122,536.681030 
z"/>
<path fill="#A101BA" opacity="1.000000" stroke="none" 
	d="
M912.255493,696.999878 
	C912.236694,703.154419 912.292969,708.810852 912.165649,714.463196 
	C912.017273,721.045776 908.154541,725.169067 901.669739,725.257996 
	C889.697571,725.422302 877.720825,725.398315 865.747681,725.277466 
	C859.736389,725.216797 855.316467,720.952148 855.225525,714.867920 
	C855.054077,703.395569 855.099182,691.914673 855.386719,680.445679 
	C855.439209,678.348633 856.596130,675.844238 858.055969,674.292664 
	C864.433716,667.514526 871.054993,660.961304 877.701538,654.442261 
	C881.371521,650.842773 886.437805,650.899719 890.051086,654.475708 
	C896.668030,661.024414 903.342285,667.526672 909.671143,674.346680 
	C911.178711,675.971375 911.966248,678.734375 912.128662,681.041199 
	C912.489929,686.171570 912.246399,691.344421 912.255493,696.999878 
z"/>
<path fill="#B302D0" opacity="1.000000" stroke="none" 
	d="
M755.410156,826.734863 
	C754.859131,824.738831 754.042786,822.333862 754.040283,819.927979 
	C753.975586,758.245728 753.982239,696.563477 754.055786,634.881226 
	C754.058472,632.643982 754.863770,630.407715 755.607056,627.791138 
	C756.006836,634.232605 756.189636,641.054260 756.167419,647.875183 
	C755.973755,707.358704 755.743469,766.842041 755.410156,826.734863 
z"/>
</svg>